<?xml version="1.0" standalone="no"?>
<!DOCTYPE svg PUBLIC "-//W3C//DTD SVG 20010904//EN"
 "http://www.w3.org/TR/2001/REC-SVG-20010904/DTD/svg10.dtd">
<svg version="1.0" xmlns="http://www.w3.org/2000/svg"
 width="200.000000pt" height="200.000000pt" viewBox="0 0 200.000000 200.000000"
 preserveAspectRatio="xMidYMid meet">
<metadata>
Created by potrace 1.11, written by Peter Selinger 2001-2013
</metadata>
<g transform="translate(0.000000,200.000000) scale(0.100000,-0.100000)"
fill="#000000" stroke="none">
<path d="M0 1000 l0 -1000 1000 0 1000 0 0 1000 0 1000 -1000 0 -1000 0 0
-1000z m790 405 l0 -85 -65 0 c-36 0 -65 -3 -65 -7 -1 -26 125 -511 131 -505
4 4 39 129 79 277 39 149 80 300 91 338 l20 67 87 0 88 0 83 -337 c46 -186 87
-342 91 -346 4 -5 15 20 24 55 9 35 27 106 41 158 53 196 75 281 75 290 0 6
-27 10 -60 10 l-60 0 0 85 0 85 195 0 195 0 0 -85 0 -85 -59 0 -58 0 -33 -122
c-17 -68 -53 -204 -79 -303 -27 -99 -61 -228 -76 -287 l-28 -108 -137 0 -138
0 -16 63 c-9 34 -39 150 -65 257 -27 107 -52 188 -55 180 -3 -8 -33 -121 -67
-250 -33 -129 -64 -239 -68 -243 -4 -4 -68 -6 -141 -5 l-134 3 -101 405 -101
405 -57 3 -57 3 0 84 0 85 260 0 260 0 0 -85z"/>
</g>
</svg>
